<?xml version="1.0" encoding="UTF-8" standalone="no"?>
<!-- Generator: Adobe Illustrator 18.1.1, SVG Export Plug-In . SVG Version: 6.00 Build 0)  -->

<svg
   xmlns:dc="http://purl.org/dc/elements/1.1/"
   xmlns:cc="http://creativecommons.org/ns#"
   xmlns:rdf="http://www.w3.org/1999/02/22-rdf-syntax-ns#"
   xmlns:svg="http://www.w3.org/2000/svg"
   xmlns="http://www.w3.org/2000/svg"
   xmlns:sodipodi="http://sodipodi.sourceforge.net/DTD/sodipodi-0.dtd"
   xmlns:inkscape="http://www.inkscape.org/namespaces/inkscape"
   version="1.1"
   id="Capa_1"
   x="0px"
   y="0px"
   viewBox="0 0 99.999994 136.3737"
   xml:space="preserve"
   sodipodi:docname="musical_half_notes_vector_2.svg"
   width="100"
   height="136.3737"
   inkscape:version="0.92.4 (5da689c313, 2019-01-14)"><metadata
   id="metadata41"><rdf:RDF><cc:Work
       rdf:about=""><dc:format>image/svg+xml</dc:format><dc:type
         rdf:resource="http://purl.org/dc/dcmitype/StillImage" /><dc:title /></cc:Work></rdf:RDF></metadata><defs
   id="defs39" /><sodipodi:namedview
   pagecolor="#ffffff"
   bordercolor="#666666"
   borderopacity="1"
   objecttolerance="10"
   gridtolerance="10"
   guidetolerance="10"
   inkscape:pageopacity="0"
   inkscape:pageshadow="2"
   inkscape:window-width="1021"
   inkscape:window-height="807"
   id="namedview37"
   showgrid="false"
   fit-margin-top="0"
   fit-margin-left="0"
   fit-margin-right="0"
   fit-margin-bottom="0"
   inkscape:pagecheckerboard="true"
   inkscape:zoom="4"
   inkscape:cx="50.285564"
   inkscape:cy="101.425"
   inkscape:window-x="231"
   inkscape:window-y="343"
   inkscape:window-maximized="0"
   inkscape:current-layer="g4" />
<g
   id="g4"
   transform="matrix(3.1282764,0,0,3.1282764,15.906858,34.093427)">
	<path
   style="fill:#010002"
   d="m 10.653,8.76 8.145,-1.321 v 11.043 c 0,0.914 -0.681,1.644 -1.744,1.913 -1.168,0.289 -2.294,-0.2 -2.519,-1.095 -0.224,-0.897 0.541,-1.858 1.708,-2.15 0.527,-0.13 1.047,-0.103 1.481,0.05 v -6.654 l -5.969,1.092 -0.028,8.276 c -0.005,0.783 -0.713,1.554 -1.729,1.805 -1.153,0.289 -2.363,-0.26 -2.492,-1.081 -0.221,-0.886 0.534,-1.837 1.691,-2.127 0.52,-0.13 1.029,-0.104 1.456,0.046 z"
   id="path4666"
   inkscape:connector-curvature="0" /><path
   style="fill:#010002"
   d="M 7.591,12.81 7.62,2.581 c 0,0 2.228,-0.119 4.407,3.298 0,0 0.006,-1.764 -1.669,-3.055 C 7.087,0.54 7.096,0 7.096,0 6.472,0.073 6.408,0.547 6.408,0.547 V 11.318 C 5.94,11.154 5.38,11.125 4.806,11.268 c -1.27,0.314 -2.1,1.363 -1.857,2.338 0.143,0.901 1.471,1.506 2.74,1.187 1.115,-0.278 1.894,-1.12 1.9,-1.983 z"
   id="path4664"
   inkscape:connector-curvature="0" /><path
   style="fill:#010002"
   d="m 13.515,6.2 c 0.388,-0.097 0.659,-0.39 0.661,-0.69 h 10e-4 l 0.01,-3.559 c 0,0 0.775,-0.041 1.533,1.148 0,0 10e-4,-0.614 -0.582,-1.062 C 14,1.242 14.004,1.054 14.004,1.054 c -0.217,0.025 -0.24,0.19 -0.24,0.19 V 4.992 C 13.602,4.934 13.408,4.924 13.208,4.973 c -0.443,0.109 -0.73,0.475 -0.646,0.814 0.05,0.314 0.512,0.524 0.953,0.413 z"
   id="path4662"
   inkscape:connector-curvature="0" /><path
   style="fill:#010002"
   d="m 17.355,6.209 c 0.27,-0.067 0.458,-0.272 0.46,-0.481 l 0.007,-2.479 c 0,0 0.54,-0.029 1.068,0.799 0,0 10e-4,-0.428 -0.404,-0.74 C 17.693,2.754 17.695,2.623 17.695,2.623 17.544,2.641 17.528,2.756 17.528,2.756 V 5.367 C 17.415,5.327 17.279,5.32 17.14,5.355 c -0.308,0.076 -0.509,0.33 -0.45,0.566 0.034,0.219 0.356,0.366 0.665,0.288 z"
   id="path2"
   inkscape:connector-curvature="0" />
<path
   style="display:none;fill:#010002;stroke-width:1"
   d="m 22.728772,8.6450683 1.102,-0.179308 v 3.0573077 l -0.028,8.276 c -0.005,0.783 -0.713,1.554 -1.729,1.805 -1.153,0.289 -2.363,-0.26 -2.492,-1.081 -0.221,-0.886 0.534,-1.837 1.691,-2.127 0.52,-0.13 1.029,-0.104 1.456,0.046 z"
   id="path4666-8"
   inkscape:connector-curvature="0"
   sodipodi:nodetypes="ccccccccc" /><path
   style="display:none;fill:#000000;stroke-width:0.07991622"
   d="m 28.542073,20.085261 c -1.469185,-0.604228 -2.451555,-1.776249 -2.525128,-3.01262 -0.02957,-0.496856 -0.01703,-0.543486 0.217721,-0.810871 0.351237,-0.400035 0.785765,-0.5514 1.750846,-0.609891 l 0.824503,-0.04997 -0.422538,-0.319665 c -0.627252,-0.47454 -1.490307,-1.306719 -1.756594,-1.693752 l -0.234345,-0.340609 0.360437,-0.740977 c 0.57958,-1.191477 0.874087,-2.7072748 0.699054,-3.5979808 -0.04102,-0.208781 -0.05227,-0.3789065 -0.02498,-0.3780565 0.02731,8.5e-4 0.555057,0.4054255 1.172819,0.899057 0.617759,0.4936315 1.29094,1.0233803 1.495956,1.1772193 0.20502,0.153838 0.373836,0.297688 0.37515,0.319665 0.0012,0.02198 -0.173163,0.138555 -0.38773,0.259064 -0.57324,0.321955 -1.142684,0.86675 -1.368855,1.309607 -0.26909,0.526888 -0.271814,1.274477 -0.0065,1.781945 0.240506,0.460008 0.924331,1.179862 1.305567,1.374353 0.165126,0.08424 0.300231,0.166034 0.300231,0.181758 0,0.01572 -0.224765,0.110425 -0.499475,0.210446 -0.585265,0.213089 -1.305402,0.625964 -1.554746,0.891379 -0.09669,0.102924 -0.232935,0.323872 -0.302765,0.490994 -0.114632,0.274357 -0.115194,0.349787 -0.0058,0.776867 0.166156,0.648565 0.441911,1.165256 0.884773,1.657829 0.416355,0.463084 0.369332,0.498508 -0.297632,0.224209 z"
   id="path2023"
   inkscape:connector-curvature="0" /></g>
<g
   id="g6"
   transform="matrix(3.1282764,0,0,3.1282764,15.906858,34.093427)">
</g>
<g
   id="g8"
   transform="matrix(3.1282764,0,0,3.1282764,15.906858,34.093427)">
</g>
<g
   id="g10"
   transform="matrix(3.1282764,0,0,3.1282764,15.906858,34.093427)">
</g>
<g
   id="g12"
   transform="matrix(3.1282764,0,0,3.1282764,15.906858,34.093427)">
</g>
<g
   id="g14"
   transform="matrix(3.1282764,0,0,3.1282764,15.906858,34.093427)">
</g>
<g
   id="g16"
   transform="matrix(3.1282764,0,0,3.1282764,15.906858,34.093427)">
</g>
<g
   id="g18"
   transform="matrix(3.1282764,0,0,3.1282764,15.906858,34.093427)">
</g>
<g
   id="g20"
   transform="matrix(3.1282764,0,0,3.1282764,15.906858,34.093427)">
</g>
<g
   id="g22"
   transform="matrix(3.1282764,0,0,3.1282764,15.906858,34.093427)">
</g>
<g
   id="g24"
   transform="matrix(3.1282764,0,0,3.1282764,15.906858,34.093427)">
</g>
<g
   id="g26"
   transform="matrix(3.1282764,0,0,3.1282764,15.906858,34.093427)">
</g>
<g
   id="g28"
   transform="matrix(3.1282764,0,0,3.1282764,15.906858,34.093427)">
</g>
<g
   id="g30"
   transform="matrix(3.1282764,0,0,3.1282764,15.906858,34.093427)">
</g>
<g
   id="g32"
   transform="matrix(3.1282764,0,0,3.1282764,15.906858,34.093427)">
</g>
<g
   id="g34"
   transform="matrix(3.1282764,0,0,3.1282764,15.906858,34.093427)">
</g>
</svg>